<svg width="25" height="442" viewBox="0 0 25 442" fill="none" xmlns="http://www.w3.org/2000/svg">
<circle cx="4.5" cy="4.5" r="4.5" transform="matrix(1 0 0 -1 0 9)" fill="#306030"/>
<circle cx="4.5" cy="4.5" r="4.5" transform="matrix(1 0 0 -1 0 403)" fill="#306030"/>
<circle cx="4.5" cy="4.5" r="4.5" transform="matrix(1 0 0 -1 0 22)" fill="#306030"/>
<circle cx="4.5" cy="4.5" r="4.5" transform="matrix(1 0 0 -1 0 416)" fill="#306030"/>
<circle cx="4.5" cy="4.5" r="4.5" transform="matrix(1 0 0 -1 0 35)" fill="#306030"/>
<circle cx="4.5" cy="4.5" r="4.5" transform="matrix(1 0 0 -1 0 429)" fill="#306030"/>
<circle cx="4.5" cy="4.5" r="4.5" transform="matrix(1 0 0 -1 0 48)" fill="#306030"/>
<circle cx="4.5" cy="4.5" r="4.5" transform="matrix(1 0 0 -1 0 442)" fill="#306030"/>
<circle cx="4.5" cy="4.5" r="4.5" transform="matrix(1 0 0 -1 16 48)" fill="#306030"/>
<circle cx="4.5" cy="4.5" r="4.5" transform="matrix(1 0 0 -1 16 183)" fill="#306030"/>
<circle cx="4.5" cy="4.5" r="4.5" transform="matrix(1 0 0 -1 0 102)" fill="#306030"/>
<circle cx="4.5" cy="4.5" r="4.5" transform="matrix(1 0 0 -1 0 170)" fill="#306030"/>
<circle cx="4.5" cy="4.5" r="4.5" transform="matrix(1 0 0 -1 0 183)" fill="#306030"/>
<circle cx="4.5" cy="4.5" r="4.5" transform="matrix(1 0 0 -1 16 348)" fill="#306030"/>
<circle cx="4.5" cy="4.5" r="4.5" transform="matrix(1 0 0 -1 0 293)" fill="#306030"/>
<rect width="9" height="51" transform="matrix(1 0 0 -1 16 102)" fill="#306030"/>
<rect width="9" height="51" transform="matrix(1 0 0 -1 16 238)" fill="#306030"/>
<rect width="9" height="51" transform="matrix(1 0 0 -1 0 157)" fill="#306030"/>
<rect width="9" height="51" transform="matrix(1 0 0 -1 16 403)" fill="#306030"/>
<rect width="9" height="51" transform="matrix(1 0 0 -1 0 348)" fill="#306030"/>
<rect width="9" height="51" transform="matrix(1 0 0 -1 0 280)" fill="#306030"/>
</svg>
