<svg width="442" height="25" viewBox="0 0 442 25" fill="none" xmlns="http://www.w3.org/2000/svg">
<circle cx="4.5" cy="4.5" r="4.5" transform="matrix(0 -1 -1 0 9 25)" fill="#306030"/>
<circle cx="4.5" cy="4.5" r="4.5" transform="matrix(0 -1 -1 0 403 25)" fill="#306030"/>
<circle cx="4.5" cy="4.5" r="4.5" transform="matrix(0 -1 -1 0 22 25)" fill="#306030"/>
<circle cx="4.5" cy="4.5" r="4.5" transform="matrix(0 -1 -1 0 416 25)" fill="#306030"/>
<circle cx="4.5" cy="4.5" r="4.5" transform="matrix(0 -1 -1 0 35 25)" fill="#306030"/>
<circle cx="4.5" cy="4.5" r="4.5" transform="matrix(0 -1 -1 0 429 25)" fill="#306030"/>
<circle cx="4.5" cy="4.5" r="4.5" transform="matrix(0 -1 -1 0 48 25)" fill="#306030"/>
<circle cx="4.5" cy="4.5" r="4.5" transform="matrix(0 -1 -1 0 442 25)" fill="#306030"/>
<circle cx="4.5" cy="4.5" r="4.5" transform="matrix(0 -1 -1 0 48 9)" fill="#306030"/>
<circle cx="4.5" cy="4.5" r="4.5" transform="matrix(0 -1 -1 0 183 9)" fill="#306030"/>
<circle cx="4.5" cy="4.5" r="4.5" transform="matrix(0 -1 -1 0 102 25)" fill="#306030"/>
<circle cx="4.5" cy="4.5" r="4.5" transform="matrix(0 -1 -1 0 170 25)" fill="#306030"/>
<circle cx="4.5" cy="4.5" r="4.5" transform="matrix(0 -1 -1 0 183 25)" fill="#306030"/>
<circle cx="4.5" cy="4.5" r="4.5" transform="matrix(0 -1 -1 0 348 9)" fill="#306030"/>
<circle cx="4.5" cy="4.5" r="4.5" transform="matrix(0 -1 -1 0 293 25)" fill="#306030"/>
<rect width="9" height="51" transform="matrix(0 -1 -1 0 102 9)" fill="#306030"/>
<rect width="9" height="51" transform="matrix(0 -1 -1 0 238 9)" fill="#306030"/>
<rect width="9" height="51" transform="matrix(0 -1 -1 0 157 25)" fill="#306030"/>
<rect width="9" height="51" transform="matrix(0 -1 -1 0 403 9)" fill="#306030"/>
<rect width="9" height="51" transform="matrix(0 -1 -1 0 348 25)" fill="#306030"/>
<rect width="9" height="51" transform="matrix(0 -1 -1 0 280 25)" fill="#306030"/>
</svg>
