<svg width="25" height="442" viewBox="0 0 25 442" fill="none" xmlns="http://www.w3.org/2000/svg">
<circle cx="4.5" cy="4.5" r="4.5" transform="matrix(-1 0 0 1 25 433)" fill="#306030"/>
<circle cx="4.5" cy="4.5" r="4.5" transform="matrix(-1 0 0 1 25 39)" fill="#306030"/>
<circle cx="4.5" cy="4.5" r="4.5" transform="matrix(-1 0 0 1 25 420)" fill="#306030"/>
<circle cx="4.5" cy="4.5" r="4.5" transform="matrix(-1 0 0 1 25 26)" fill="#306030"/>
<circle cx="4.5" cy="4.5" r="4.5" transform="matrix(-1 0 0 1 25 407)" fill="#306030"/>
<circle cx="4.5" cy="4.5" r="4.5" transform="matrix(-1 0 0 1 25 13)" fill="#306030"/>
<circle cx="4.5" cy="4.5" r="4.5" transform="matrix(-1 0 0 1 25 394)" fill="#306030"/>
<circle cx="4.5" cy="4.5" r="4.5" transform="matrix(-1 0 0 1 25 0)" fill="#306030"/>
<circle cx="4.5" cy="4.5" r="4.5" transform="matrix(-1 0 0 1 9 394)" fill="#306030"/>
<circle cx="4.5" cy="4.5" r="4.5" transform="matrix(-1 0 0 1 9 259)" fill="#306030"/>
<circle cx="4.5" cy="4.5" r="4.5" transform="matrix(-1 0 0 1 25 340)" fill="#306030"/>
<circle cx="4.5" cy="4.5" r="4.5" transform="matrix(-1 0 0 1 25 272)" fill="#306030"/>
<circle cx="4.5" cy="4.5" r="4.5" transform="matrix(-1 0 0 1 25 259)" fill="#306030"/>
<circle cx="4.5" cy="4.5" r="4.5" transform="matrix(-1 0 0 1 9 94)" fill="#306030"/>
<circle cx="4.5" cy="4.5" r="4.5" transform="matrix(-1 0 0 1 25 149)" fill="#306030"/>
<rect width="9" height="51" transform="matrix(-1 0 0 1 9 340)" fill="#306030"/>
<rect width="9" height="51" transform="matrix(-1 0 0 1 9 204)" fill="#306030"/>
<rect width="9" height="51" transform="matrix(-1 0 0 1 25 285)" fill="#306030"/>
<rect width="9" height="51" transform="matrix(-1 0 0 1 9 39)" fill="#306030"/>
<rect width="9" height="51" transform="matrix(-1 0 0 1 25 94)" fill="#306030"/>
<rect width="9" height="51" transform="matrix(-1 0 0 1 25 162)" fill="#306030"/>
</svg>
